<?xml version="1.0" encoding="utf-8"?>
<!-- Generator: Adobe Illustrator 25.2.1, SVG Export Plug-In . SVG Version: 6.00 Build 0)  -->
<svg version="1.1" id="Layer_1" xmlns="http://www.w3.org/2000/svg" xmlns:xlink="http://www.w3.org/1999/xlink" x="0px" y="0px"
	 viewBox="0 0 1084 1080" style="enable-background:new 0 0 1084 1080;" xml:space="preserve">
<g>
	<path style="fill:#414141;" d="M709.3,864.73c-39.52,0-79.03,0.09-118.55-0.02c-108.8-0.3-193.55-66.82-222.49-171.33
		c-49.05-177.11-99.52-353.82-149.59-530.65c-8.07-28.51-18.39-35.87-47.79-35.99c-36.27-0.15-72.56,0.67-108.79-0.51
		c-34.77-1.13-54.97-32.22-43.9-65.28c6.61-19.76,21.16-30.91,41.12-31.31c44.88-0.9,90.07-2.88,134.65,1.05
		c59.65,5.27,97.9,41.16,114.31,97.91c51.65,178.63,102.08,357.62,153.28,536.39c17.96,62.71,63.89,96.7,129.55,96.78
		c79.57,0.1,159.15,0.1,238.72,0c76.77-0.1,131.98-55.03,132.35-131.92c0.27-57.36,0.29-114.72-0.1-172.07
		c-0.48-71.47-56.6-127.01-128.4-127.2c-82.28-0.22-164.56,0.04-246.84-0.13c-29.67-0.06-48.8-16.51-51.27-43.23
		c-2.94-31.87,17.01-54.16,49.77-54.28c84.44-0.31,168.9-0.66,253.33,0.26c18.66,0.2,37.78,3.77,55.82,8.86
		c91.81,25.88,158.07,110.53,160.16,206.08c1.48,67.61,1.48,135.29,0.06,202.9c-2.28,108.26-95.84,205.71-204.16,211.91
		c-46.93,2.69-94.14,0.45-141.23,0.45C709.3,863.85,709.3,864.29,709.3,864.73z"/>
	<path style="fill:#414141;" d="M508.29,950.89c6.48,0,12.98-0.26,19.45,0.04c28.88,1.36,46.94,20.29,47.03,49.09
		c0.08,27.37-18.19,46.81-46.24,48.22c-14.55,0.73-29.2,0.75-43.75-0.01c-27.8-1.45-46.22-21.01-46.44-48.3
		c-0.22-27.99,18.68-47.76,47.26-49.15c7.55-0.37,15.12-0.06,22.69-0.06C508.29,950.79,508.29,950.84,508.29,950.89z"/>
	<path style="fill:#414141;" d="M943.78,950.83c5.94,0,11.89-0.14,17.83,0.02c31.24,0.83,49.29,18.29,49.46,47.77
		c0.17,30.44-18,48.92-49.44,49.83c-12.96,0.38-25.95,0.53-38.89-0.06c-29.33-1.33-47.11-20-47.14-48.79
		c-0.03-28.88,17.8-47.39,47.11-48.68c7.01-0.31,14.05-0.05,21.07-0.05C943.78,950.86,943.78,950.85,943.78,950.83z"/>
</g>
</svg>
